<svg id="Layer_1" data-name="Layer 1" xmlns="http://www.w3.org/2000/svg" xmlns:xlink="http://www.w3.org/1999/xlink" viewBox="0 0 837 338.09"><defs><style>.cls-1{fill:none;}.cls-2{fill:#d0d5d8;}.cls-3{fill:url(#CONFETTI_2);}</style><pattern id="CONFETTI_2" data-name="CONFETTI 2" width="682.55" height="707.71" patternTransform="translate(609.2 -306.42) rotate(-175.84) scale(0.5)" patternUnits="userSpaceOnUse" viewBox="0 0 682.55 707.71"><rect class="cls-1" width="682.55" height="707.71"/><polygon class="cls-2" points="137.83 156.39 60.91 81.17 90.36 51.06 167.28 126.29 137.83 156.39"/><polygon class="cls-2" points="653.11 376.26 576.19 301.04 605.63 270.93 682.55 346.15 653.11 376.26"/><polygon class="cls-2" points="318.92 298.33 280.03 282.18 321.29 182.81 360.18 198.97 318.92 298.33"/><polygon class="cls-2" points="81.61 475.97 45.13 454.92 98.93 361.74 135.4 382.8 81.61 475.97"/><polygon class="cls-2" points="546.74 154.78 473.12 82.78 502.56 52.67 576.19 124.68 546.74 154.78"/><polygon class="cls-2" points="574.65 664.48 551.34 629.4 640.94 569.85 664.25 604.93 574.65 664.48"/><polygon class="cls-2" points="249.49 681.03 334.23 614.75 360.18 647.92 275.44 714.21 249.49 681.03"/><polygon class="cls-2" points="393.87 487.61 360.18 462.34 424.72 376.26 458.42 401.53 393.87 487.61"/><polygon class="cls-2" points="249.49 -26.68 334.23 -92.96 360.18 -59.79 275.44 6.5 249.49 -26.68"/></pattern></defs><title>ELEMENT</title><rect class="cls-3" width="837" height="338.09"/></svg>