<svg id="Layer_1" data-name="Layer 1" xmlns="http://www.w3.org/2000/svg" xmlns:xlink="http://www.w3.org/1999/xlink" viewBox="0 0 198.46 43.57"><defs><style>.cls-1{fill:#192150;}.cls-2,.cls-3{fill:none;}.cls-2{stroke:#d0d5d8;stroke-miterlimit:10;stroke-width:2px;}.cls-3{stroke:#192150;stroke-linecap:round;stroke-linejoin:round;stroke-width:1.5px;}</style><symbol id="LOGO" data-name="LOGO" viewBox="0 0 247.13 54.26"><path class="cls-1" d="M101,47.12C88,47.12,79,37.46,79,23.62S88.23,0,101.52,0c10.26,0,17.3,4.63,19.82,13.12l0.15,0.5h-2.19l-0.09-.26C116.84,6.11,110.39,2,101.52,2c-12.2,0-20.4,8.68-20.4,21.58,0,12.67,8.24,21.52,20,21.52,9.16,0,14.91-3.53,18.07-11.12l0.11-.26,2.2,0.1-0.2.52C117.91,43.05,111.46,47.12,101,47.12Z"/><path class="cls-1" d="M101,47c-12.93,0-22-9.62-22-23.4S88.29,0.1,101.52.1c10.22,0,17.22,4.67,19.72,13.1l0.11,0.42h-2l-0.07-.24C116.92,6.09,110.44,1.9,101.52,1.9,89.26,1.9,81,10.6,81,23.57c0,12.73,8.28,21.61,20.13,21.61,9.21,0,15-3.55,18.16-11.18l0.08-.19,2,0.09-0.15.39C117.84,43,111.42,47,101,47Z"/><path class="cls-1" d="M101,46.82c-12.82,0-21.77-9.54-21.77-23.2C79.25,9.67,88.2.3,101.52,0.3,111.64,0.3,118.57,5,121,13.36l0,0.26h-1.57l0-.2c-2.41-7.37-9-11.67-18-11.67-12.38,0-20.7,8.76-20.7,21.85,0,12.85,8.36,21.8,20.33,21.8,9.3,0,15.13-3.6,18.35-11.31l0-.07,1.58,0.07-0.05.13C117.68,42.81,111.32,46.82,101,46.82Z"/><path class="cls-1" d="M121,34.18c-3.1,7.95-8.88,12.54-19.93,12.54-13.78,0-21.67-10.49-21.67-23.1C79.35,10,88.23.4,101.52,0.4c11.11,0,17.26,5.53,19.43,12.85h-1.37c-2-6.27-7.7-11.67-18.07-11.67-12.36,0-20.8,8.82-20.8,22,0,12,7.76,21.92,20.43,21.92,10.12,0,15.46-4.22,18.44-11.36Z"/><path class="cls-1" d="M146.89,47.06c-11.61,0-17.91-7-17.91-19.65V0.62h2V27.1c0,6.71,2.15,18,15.91,18C157.8,45.08,163,39.32,163,27V0.62h2V26.73C165,40.21,159,47.06,146.89,47.06Z"/><path class="cls-1" d="M146.89,47C135.21,47,129,40,129,27.41V0.62h2V27.1c0,15.73,9.85,18.08,15.91,18.08,11,0,16.09-6,16.09-18.2V0.62h2V26.73C165,40.15,159,47,146.89,47Z"/><path class="cls-1" d="M146.89,46.76c-11.56,0-17.91-6.87-17.91-19.35V1.62h1V27.1c0,15.9,10.28,18.28,16.41,18.28,11.17,0,16.59-6,16.59-18.4V1.62h2V26.73C165,40,158.9,46.76,146.89,46.76Z"/><path class="cls-1" d="M130.32,1.27V27.1c0,14.84,9,18.38,16.52,18.38,9.81,0,16.7-4.66,16.7-18.5V1.27h1.3V26.73c0,14.59-7.2,19.93-18,19.93-11.05,0-17.82-6.4-17.82-19.25V1.27h1.3Z"/><path class="cls-1" d="M188.43,47.06c-10.33,0-16.61-4.51-18.15-13.14l-0.1-.3h2.11l0.07,0.14c1.42,7.38,7.1,11.4,16,11.4,9.16,0,14.63-3.91,14.63-10.45,0-5.73-2.27-8.91-15.2-11.49-10.36-2-15.29-4.33-15.29-11.76,0-6.85,6-11.46,15.05-11.46,11.94,0,15.58,6.18,16.54,11.41l0.13,0.2h-2.14l-0.08,0c-1.64-6.57-6.37-9.74-14.45-9.74-6,0-13,2.49-13,9.48,0,4.92,2.05,7.66,13.71,9.89,14.08,2.72,16.84,6.92,16.84,13.26C205.16,43.75,196.52,47.06,188.43,47.06Z"/><path class="cls-1" d="M188.43,47c-10.26,0-16.51-4.45-18.05-13.1l-0.06-.23h1.91l0,0.13c1.43,7.45,7.15,11.49,16.1,11.49,9.22,0,14.73-4,14.73-10.53,0-5.77-2.29-9-15.28-11.58-10.3-2-15.21-4.31-15.21-11.66,0-6.79,6-11.36,15-11.36C199.41,0.1,203,6.19,204,11.49l0.06,0.13h-2c-1.67-6.7-6.43-9.84-14.55-9.84-6,0-13,2.55-13,9.57,0,5,2.06,7.74,13.79,10,14,2.7,16.76,6.88,16.76,13.16C205.06,43.67,196.47,47,188.43,47Z"/><path class="cls-1" d="M188.43,46.76c-10.16,0-16.33-4.5-17.86-13l0-.1h1.51l0,0.06c1.46,7.55,7.24,11.71,16.29,11.71,9.35,0,14.93-4,14.93-10.71,0-5.76-2.39-9.16-15.44-11.76-10.19-2-15-4.24-15-11.46,0-6.67,5.93-11.15,14.75-11.15,11.7,0,15.29,6.1,16.24,11.32h-1.48l0,0c-1.7-6.8-6.52-10-14.74-10-6.11,0-13.25,2.57-13.25,9.74,0,5.07,2.09,7.89,14,10.16,13.88,2.68,16.6,6.78,16.6,13C204.86,43.52,196.38,46.76,188.43,46.76Z"/><path class="cls-1" d="M172,33.68c1.3,6.77,6.46,11.8,16.39,11.8,10.25,0,15-4.78,15-10.8s-2.73-9.31-15.52-11.86c-10.37-2-15-4.35-15-11.36S179.43,0.4,187.56.4c12.54,0,15.4,7.26,16.14,11.36h-1.3C201.22,7,198.06,1.58,187.56,1.58c-6.71,0-13.35,2.92-13.35,9.81,0,5.4,2.67,8.07,14,10.24,13.85,2.67,16.52,6.77,16.52,12.85,0,8.44-7.51,12.17-16.33,12.17-9.87,0-16.21-4.28-17.76-13H172Z"/><path class="cls-1" d="M214,45.62v-45h19c8.45,0,14.12,4.85,14.12,12.22,0,8.19-5.26,12.78-14.43,12.78H216v20h-2Zm18.9-21c7.72,0,12.14-4.17,12.14-11.28,0-5.12-3.74-10.72-12-10.72H216v22h16.9Z"/><path class="cls-1" d="M214,45.62v-45h19c8.39,0,14,4.87,14,12.22,0,8.16-5.22,12.78-14.33,12.78H216v20h-2Zm18.9-21c7.89,0,12.24-4.15,12.24-11.28,0-5.06-3.77-10.72-12.06-10.72H216v22h16.9Z"/><path class="cls-1" d="M215,45.62v-44h18c8.27,0,13.82,4.49,13.82,11.72,0,8-5.15,12.28-14.13,12.28H216v20h-1Zm17.9-21c8,0,12.44-4,12.44-11.28,0-5.15-3.84-10.72-12.26-10.72H216v22h16.9Z"/><path class="cls-1" d="M214.69,1.27H233c8.51,0,13.72,5,13.72,12,0,7.14-4.16,12.54-14,12.54H215.93v20h-1.24V1.27Zm1.24,23.35h17c8.51,0,12.54-4.53,12.54-11.36,0-5.46-4.1-10.8-12.36-10.8H215.93V24.61Z"/><rect class="cls-2" x="1" y="1.41" width="47.3" height="47.3"/><line class="cls-3" x1="55.02" y1="10.04" x2="11.56" y2="53.51"/></symbol></defs><title>ELEMENT</title><use width="247.13" height="54.26" transform="scale(0.8)" xlink:href="#LOGO"/></svg>