<?xml version="1.0" standalone="no"?>
<!DOCTYPE svg PUBLIC "-//W3C//DTD SVG 20010904//EN"
 "http://www.w3.org/TR/2001/REC-SVG-20010904/DTD/svg10.dtd">
<svg version="1.0" xmlns="http://www.w3.org/2000/svg"
 width="806.000000pt" height="806.000000pt" viewBox="0 0 806.000000 806.000000"
 preserveAspectRatio="xMidYMid meet">
<metadata>
Created by potrace 1.11, written by Peter Selinger 2001-2013
</metadata>
<g transform="translate(0.000000,806.000000) scale(0.100000,-0.100000)"
fill="#000000" stroke="none">
<path d="M147 7909 c-56 -15 -100 -52 -119 -99 -7 -16 -10 -1204 -10 -3447 l0
-3422 21 -45 c17 -34 33 -50 67 -66 l44 -22 926 0 926 0 -39 -40 c-21 -22
-118 -120 -215 -218 -98 -98 -182 -190 -188 -205 -25 -64 0 -143 55 -179 32
-21 98 -28 133 -15 15 6 173 156 352 334 l325 323 2281 0 c2095 0 2284 1 2315
16 50 24 64 37 84 76 17 34 18 133 18 2320 l-1 2285 466 467 466 467 4 64 c4
57 2 66 -23 95 -15 18 -39 39 -54 46 -31 16 -97 14 -132 -4 -13 -7 -166 -155
-339 -328 -173 -174 -331 -331 -351 -349 l-36 -33 0 928 c0 916 0 927 -20 967
-14 26 -37 49 -64 65 l-44 25 -3413 0 c-1877 0 -3423 -3 -3435 -6z m6631 -328
c9 -1 12 -207 12 -995 l0 -994 -2226 -2226 -2226 -2226 -994 0 -994 0 0 3218
c0 1770 2 3221 4 3223 3 3 6374 3 6424 0z"/>
</g>
</svg>
